<?xml version="1.0" encoding="utf-8" standalone="no"?>
<!DOCTYPE svg PUBLIC "-//W3C//DTD SVG 1.1//EN"
  "http://www.w3.org/Graphics/SVG/1.1/DTD/svg11.dtd">
<svg xmlns:xlink="http://www.w3.org/1999/xlink" width="432pt" height="288pt" viewBox="0 0 432 288" xmlns="http://www.w3.org/2000/svg" version="1.1">
 <metadata>
  <rdf:RDF xmlns:dc="http://purl.org/dc/elements/1.1/" xmlns:cc="http://creativecommons.org/ns#" xmlns:rdf="http://www.w3.org/1999/02/22-rdf-syntax-ns#">
   <cc:Work>
    <dc:type rdf:resource="http://purl.org/dc/dcmitype/StillImage"/>
    <dc:date>2022-09-03T23:31:22.773037</dc:date>
    <dc:format>image/svg+xml</dc:format>
    <dc:creator>
     <cc:Agent>
      <dc:title>Matplotlib v3.5.2, https://matplotlib.org/</dc:title>
     </cc:Agent>
    </dc:creator>
   </cc:Work>
  </rdf:RDF>
 </metadata>
 <defs>
  <style type="text/css">*{stroke-linejoin: round; stroke-linecap: butt}</style>
 </defs>
 <g id="figure_1">
  <g id="patch_1">
   <path d="M 0 288 
L 432 288 
L 432 0 
L 0 0 
L 0 288 
z
" style="fill: none"/>
  </g>
  <g id="axes_1">
   <g id="patch_2">
    <path d="M 54 252 
L 388.8 252 
L 388.8 34.56 
L 54 34.56 
z
" style="fill: #ffffff"/>
   </g>
   <g id="matplotlib.axis_1">
    <g id="xtick_1">
     <g id="line2d_1">
      <defs>
       <path id="me7504d8bdd" d="M 0 0 
L 0 3.5 
" style="stroke: #000000; stroke-width: 0.8"/>
      </defs>
      <g>
       <use xlink:href="#me7504d8bdd" x="69.218182" y="252" style="stroke: #000000; stroke-width: 0.8"/>
      </g>
     </g>
     <g id="text_1">
      <!-- 0.0 -->
      <g transform="translate(61.266619 266.598437)scale(0.1 -0.1)">
       <defs>
        <path id="DejaVuSans-30" d="M 2034 4250 
Q 1547 4250 1301 3770 
Q 1056 3291 1056 2328 
Q 1056 1369 1301 889 
Q 1547 409 2034 409 
Q 2525 409 2770 889 
Q 3016 1369 3016 2328 
Q 3016 3291 2770 3770 
Q 2525 4250 2034 4250 
z
M 2034 4750 
Q 2819 4750 3233 4129 
Q 3647 3509 3647 2328 
Q 3647 1150 3233 529 
Q 2819 -91 2034 -91 
Q 1250 -91 836 529 
Q 422 1150 422 2328 
Q 422 3509 836 4129 
Q 1250 4750 2034 4750 
z
" transform="scale(0.015625)"/>
        <path id="DejaVuSans-2e" d="M 684 794 
L 1344 794 
L 1344 0 
L 684 0 
L 684 794 
z
" transform="scale(0.015625)"/>
       </defs>
       <use xlink:href="#DejaVuSans-30"/>
       <use xlink:href="#DejaVuSans-2e" x="63.623047"/>
       <use xlink:href="#DejaVuSans-30" x="95.410156"/>
      </g>
     </g>
    </g>
    <g id="xtick_2">
     <g id="line2d_2">
      <g>
       <use xlink:href="#me7504d8bdd" x="130.090909" y="252" style="stroke: #000000; stroke-width: 0.8"/>
      </g>
     </g>
     <g id="text_2">
      <!-- 0.2 -->
      <g transform="translate(122.139347 266.598437)scale(0.1 -0.1)">
       <defs>
        <path id="DejaVuSans-32" d="M 1228 531 
L 3431 531 
L 3431 0 
L 469 0 
L 469 531 
Q 828 903 1448 1529 
Q 2069 2156 2228 2338 
Q 2531 2678 2651 2914 
Q 2772 3150 2772 3378 
Q 2772 3750 2511 3984 
Q 2250 4219 1831 4219 
Q 1534 4219 1204 4116 
Q 875 4013 500 3803 
L 500 4441 
Q 881 4594 1212 4672 
Q 1544 4750 1819 4750 
Q 2544 4750 2975 4387 
Q 3406 4025 3406 3419 
Q 3406 3131 3298 2873 
Q 3191 2616 2906 2266 
Q 2828 2175 2409 1742 
Q 1991 1309 1228 531 
z
" transform="scale(0.015625)"/>
       </defs>
       <use xlink:href="#DejaVuSans-30"/>
       <use xlink:href="#DejaVuSans-2e" x="63.623047"/>
       <use xlink:href="#DejaVuSans-32" x="95.410156"/>
      </g>
     </g>
    </g>
    <g id="xtick_3">
     <g id="line2d_3">
      <g>
       <use xlink:href="#me7504d8bdd" x="190.963636" y="252" style="stroke: #000000; stroke-width: 0.8"/>
      </g>
     </g>
     <g id="text_3">
      <!-- 0.4 -->
      <g transform="translate(183.012074 266.598437)scale(0.1 -0.1)">
       <defs>
        <path id="DejaVuSans-34" d="M 2419 4116 
L 825 1625 
L 2419 1625 
L 2419 4116 
z
M 2253 4666 
L 3047 4666 
L 3047 1625 
L 3713 1625 
L 3713 1100 
L 3047 1100 
L 3047 0 
L 2419 0 
L 2419 1100 
L 313 1100 
L 313 1709 
L 2253 4666 
z
" transform="scale(0.015625)"/>
       </defs>
       <use xlink:href="#DejaVuSans-30"/>
       <use xlink:href="#DejaVuSans-2e" x="63.623047"/>
       <use xlink:href="#DejaVuSans-34" x="95.410156"/>
      </g>
     </g>
    </g>
    <g id="xtick_4">
     <g id="line2d_4">
      <g>
       <use xlink:href="#me7504d8bdd" x="251.836364" y="252" style="stroke: #000000; stroke-width: 0.8"/>
      </g>
     </g>
     <g id="text_4">
      <!-- 0.6 -->
      <g transform="translate(243.884801 266.598437)scale(0.1 -0.1)">
       <defs>
        <path id="DejaVuSans-36" d="M 2113 2584 
Q 1688 2584 1439 2293 
Q 1191 2003 1191 1497 
Q 1191 994 1439 701 
Q 1688 409 2113 409 
Q 2538 409 2786 701 
Q 3034 994 3034 1497 
Q 3034 2003 2786 2293 
Q 2538 2584 2113 2584 
z
M 3366 4563 
L 3366 3988 
Q 3128 4100 2886 4159 
Q 2644 4219 2406 4219 
Q 1781 4219 1451 3797 
Q 1122 3375 1075 2522 
Q 1259 2794 1537 2939 
Q 1816 3084 2150 3084 
Q 2853 3084 3261 2657 
Q 3669 2231 3669 1497 
Q 3669 778 3244 343 
Q 2819 -91 2113 -91 
Q 1303 -91 875 529 
Q 447 1150 447 2328 
Q 447 3434 972 4092 
Q 1497 4750 2381 4750 
Q 2619 4750 2861 4703 
Q 3103 4656 3366 4563 
z
" transform="scale(0.015625)"/>
       </defs>
       <use xlink:href="#DejaVuSans-30"/>
       <use xlink:href="#DejaVuSans-2e" x="63.623047"/>
       <use xlink:href="#DejaVuSans-36" x="95.410156"/>
      </g>
     </g>
    </g>
    <g id="xtick_5">
     <g id="line2d_5">
      <g>
       <use xlink:href="#me7504d8bdd" x="312.709091" y="252" style="stroke: #000000; stroke-width: 0.8"/>
      </g>
     </g>
     <g id="text_5">
      <!-- 0.8 -->
      <g transform="translate(304.757528 266.598437)scale(0.1 -0.1)">
       <defs>
        <path id="DejaVuSans-38" d="M 2034 2216 
Q 1584 2216 1326 1975 
Q 1069 1734 1069 1313 
Q 1069 891 1326 650 
Q 1584 409 2034 409 
Q 2484 409 2743 651 
Q 3003 894 3003 1313 
Q 3003 1734 2745 1975 
Q 2488 2216 2034 2216 
z
M 1403 2484 
Q 997 2584 770 2862 
Q 544 3141 544 3541 
Q 544 4100 942 4425 
Q 1341 4750 2034 4750 
Q 2731 4750 3128 4425 
Q 3525 4100 3525 3541 
Q 3525 3141 3298 2862 
Q 3072 2584 2669 2484 
Q 3125 2378 3379 2068 
Q 3634 1759 3634 1313 
Q 3634 634 3220 271 
Q 2806 -91 2034 -91 
Q 1263 -91 848 271 
Q 434 634 434 1313 
Q 434 1759 690 2068 
Q 947 2378 1403 2484 
z
M 1172 3481 
Q 1172 3119 1398 2916 
Q 1625 2713 2034 2713 
Q 2441 2713 2670 2916 
Q 2900 3119 2900 3481 
Q 2900 3844 2670 4047 
Q 2441 4250 2034 4250 
Q 1625 4250 1398 4047 
Q 1172 3844 1172 3481 
z
" transform="scale(0.015625)"/>
       </defs>
       <use xlink:href="#DejaVuSans-30"/>
       <use xlink:href="#DejaVuSans-2e" x="63.623047"/>
       <use xlink:href="#DejaVuSans-38" x="95.410156"/>
      </g>
     </g>
    </g>
    <g id="xtick_6">
     <g id="line2d_6">
      <g>
       <use xlink:href="#me7504d8bdd" x="373.581818" y="252" style="stroke: #000000; stroke-width: 0.8"/>
      </g>
     </g>
     <g id="text_6">
      <!-- 1.0 -->
      <g transform="translate(365.630256 266.598437)scale(0.1 -0.1)">
       <defs>
        <path id="DejaVuSans-31" d="M 794 531 
L 1825 531 
L 1825 4091 
L 703 3866 
L 703 4441 
L 1819 4666 
L 2450 4666 
L 2450 531 
L 3481 531 
L 3481 0 
L 794 0 
L 794 531 
z
" transform="scale(0.015625)"/>
       </defs>
       <use xlink:href="#DejaVuSans-31"/>
       <use xlink:href="#DejaVuSans-2e" x="63.623047"/>
       <use xlink:href="#DejaVuSans-30" x="95.410156"/>
      </g>
     </g>
    </g>
    <g id="text_7">
     <!-- Recall -->
     <g transform="translate(206.482812 280.276563)scale(0.1 -0.1)">
      <defs>
       <path id="DejaVuSans-52" d="M 2841 2188 
Q 3044 2119 3236 1894 
Q 3428 1669 3622 1275 
L 4263 0 
L 3584 0 
L 2988 1197 
Q 2756 1666 2539 1819 
Q 2322 1972 1947 1972 
L 1259 1972 
L 1259 0 
L 628 0 
L 628 4666 
L 2053 4666 
Q 2853 4666 3247 4331 
Q 3641 3997 3641 3322 
Q 3641 2881 3436 2590 
Q 3231 2300 2841 2188 
z
M 1259 4147 
L 1259 2491 
L 2053 2491 
Q 2509 2491 2742 2702 
Q 2975 2913 2975 3322 
Q 2975 3731 2742 3939 
Q 2509 4147 2053 4147 
L 1259 4147 
z
" transform="scale(0.015625)"/>
       <path id="DejaVuSans-65" d="M 3597 1894 
L 3597 1613 
L 953 1613 
Q 991 1019 1311 708 
Q 1631 397 2203 397 
Q 2534 397 2845 478 
Q 3156 559 3463 722 
L 3463 178 
Q 3153 47 2828 -22 
Q 2503 -91 2169 -91 
Q 1331 -91 842 396 
Q 353 884 353 1716 
Q 353 2575 817 3079 
Q 1281 3584 2069 3584 
Q 2775 3584 3186 3129 
Q 3597 2675 3597 1894 
z
M 3022 2063 
Q 3016 2534 2758 2815 
Q 2500 3097 2075 3097 
Q 1594 3097 1305 2825 
Q 1016 2553 972 2059 
L 3022 2063 
z
" transform="scale(0.015625)"/>
       <path id="DejaVuSans-63" d="M 3122 3366 
L 3122 2828 
Q 2878 2963 2633 3030 
Q 2388 3097 2138 3097 
Q 1578 3097 1268 2742 
Q 959 2388 959 1747 
Q 959 1106 1268 751 
Q 1578 397 2138 397 
Q 2388 397 2633 464 
Q 2878 531 3122 666 
L 3122 134 
Q 2881 22 2623 -34 
Q 2366 -91 2075 -91 
Q 1284 -91 818 406 
Q 353 903 353 1747 
Q 353 2603 823 3093 
Q 1294 3584 2113 3584 
Q 2378 3584 2631 3529 
Q 2884 3475 3122 3366 
z
" transform="scale(0.015625)"/>
       <path id="DejaVuSans-61" d="M 2194 1759 
Q 1497 1759 1228 1600 
Q 959 1441 959 1056 
Q 959 750 1161 570 
Q 1363 391 1709 391 
Q 2188 391 2477 730 
Q 2766 1069 2766 1631 
L 2766 1759 
L 2194 1759 
z
M 3341 1997 
L 3341 0 
L 2766 0 
L 2766 531 
Q 2569 213 2275 61 
Q 1981 -91 1556 -91 
Q 1019 -91 701 211 
Q 384 513 384 1019 
Q 384 1609 779 1909 
Q 1175 2209 1959 2209 
L 2766 2209 
L 2766 2266 
Q 2766 2663 2505 2880 
Q 2244 3097 1772 3097 
Q 1472 3097 1187 3025 
Q 903 2953 641 2809 
L 641 3341 
Q 956 3463 1253 3523 
Q 1550 3584 1831 3584 
Q 2591 3584 2966 3190 
Q 3341 2797 3341 1997 
z
" transform="scale(0.015625)"/>
       <path id="DejaVuSans-6c" d="M 603 4863 
L 1178 4863 
L 1178 0 
L 603 0 
L 603 4863 
z
" transform="scale(0.015625)"/>
      </defs>
      <use xlink:href="#DejaVuSans-52"/>
      <use xlink:href="#DejaVuSans-65" x="64.982422"/>
      <use xlink:href="#DejaVuSans-63" x="126.505859"/>
      <use xlink:href="#DejaVuSans-61" x="181.486328"/>
      <use xlink:href="#DejaVuSans-6c" x="242.765625"/>
      <use xlink:href="#DejaVuSans-6c" x="270.548828"/>
     </g>
    </g>
   </g>
   <g id="matplotlib.axis_2">
    <g id="ytick_1">
     <g id="line2d_7">
      <defs>
       <path id="mb8a32ee49a" d="M 0 0 
L -3.5 0 
" style="stroke: #000000; stroke-width: 0.8"/>
      </defs>
      <g>
       <use xlink:href="#mb8a32ee49a" x="54" y="252" style="stroke: #000000; stroke-width: 0.8"/>
      </g>
     </g>
     <g id="text_8">
      <!-- 0.90 -->
      <g transform="translate(24.734375 255.799219)scale(0.1 -0.1)">
       <defs>
        <path id="DejaVuSans-39" d="M 703 97 
L 703 672 
Q 941 559 1184 500 
Q 1428 441 1663 441 
Q 2288 441 2617 861 
Q 2947 1281 2994 2138 
Q 2813 1869 2534 1725 
Q 2256 1581 1919 1581 
Q 1219 1581 811 2004 
Q 403 2428 403 3163 
Q 403 3881 828 4315 
Q 1253 4750 1959 4750 
Q 2769 4750 3195 4129 
Q 3622 3509 3622 2328 
Q 3622 1225 3098 567 
Q 2575 -91 1691 -91 
Q 1453 -91 1209 -44 
Q 966 3 703 97 
z
M 1959 2075 
Q 2384 2075 2632 2365 
Q 2881 2656 2881 3163 
Q 2881 3666 2632 3958 
Q 2384 4250 1959 4250 
Q 1534 4250 1286 3958 
Q 1038 3666 1038 3163 
Q 1038 2656 1286 2365 
Q 1534 2075 1959 2075 
z
" transform="scale(0.015625)"/>
       </defs>
       <use xlink:href="#DejaVuSans-30"/>
       <use xlink:href="#DejaVuSans-2e" x="63.623047"/>
       <use xlink:href="#DejaVuSans-39" x="95.410156"/>
       <use xlink:href="#DejaVuSans-30" x="159.033203"/>
      </g>
     </g>
    </g>
    <g id="ytick_2">
     <g id="line2d_8">
      <g>
       <use xlink:href="#mb8a32ee49a" x="54" y="212.465455" style="stroke: #000000; stroke-width: 0.8"/>
      </g>
     </g>
     <g id="text_9">
      <!-- 0.92 -->
      <g transform="translate(24.734375 216.264673)scale(0.1 -0.1)">
       <use xlink:href="#DejaVuSans-30"/>
       <use xlink:href="#DejaVuSans-2e" x="63.623047"/>
       <use xlink:href="#DejaVuSans-39" x="95.410156"/>
       <use xlink:href="#DejaVuSans-32" x="159.033203"/>
      </g>
     </g>
    </g>
    <g id="ytick_3">
     <g id="line2d_9">
      <g>
       <use xlink:href="#mb8a32ee49a" x="54" y="172.930909" style="stroke: #000000; stroke-width: 0.8"/>
      </g>
     </g>
     <g id="text_10">
      <!-- 0.94 -->
      <g transform="translate(24.734375 176.730128)scale(0.1 -0.1)">
       <use xlink:href="#DejaVuSans-30"/>
       <use xlink:href="#DejaVuSans-2e" x="63.623047"/>
       <use xlink:href="#DejaVuSans-39" x="95.410156"/>
       <use xlink:href="#DejaVuSans-34" x="159.033203"/>
      </g>
     </g>
    </g>
    <g id="ytick_4">
     <g id="line2d_10">
      <g>
       <use xlink:href="#mb8a32ee49a" x="54" y="133.396364" style="stroke: #000000; stroke-width: 0.8"/>
      </g>
     </g>
     <g id="text_11">
      <!-- 0.96 -->
      <g transform="translate(24.734375 137.195582)scale(0.1 -0.1)">
       <use xlink:href="#DejaVuSans-30"/>
       <use xlink:href="#DejaVuSans-2e" x="63.623047"/>
       <use xlink:href="#DejaVuSans-39" x="95.410156"/>
       <use xlink:href="#DejaVuSans-36" x="159.033203"/>
      </g>
     </g>
    </g>
    <g id="ytick_5">
     <g id="line2d_11">
      <g>
       <use xlink:href="#mb8a32ee49a" x="54" y="93.861818" style="stroke: #000000; stroke-width: 0.8"/>
      </g>
     </g>
     <g id="text_12">
      <!-- 0.98 -->
      <g transform="translate(24.734375 97.661037)scale(0.1 -0.1)">
       <use xlink:href="#DejaVuSans-30"/>
       <use xlink:href="#DejaVuSans-2e" x="63.623047"/>
       <use xlink:href="#DejaVuSans-39" x="95.410156"/>
       <use xlink:href="#DejaVuSans-38" x="159.033203"/>
      </g>
     </g>
    </g>
    <g id="ytick_6">
     <g id="line2d_12">
      <g>
       <use xlink:href="#mb8a32ee49a" x="54" y="54.327273" style="stroke: #000000; stroke-width: 0.8"/>
      </g>
     </g>
     <g id="text_13">
      <!-- 1.00 -->
      <g transform="translate(24.734375 58.126491)scale(0.1 -0.1)">
       <use xlink:href="#DejaVuSans-31"/>
       <use xlink:href="#DejaVuSans-2e" x="63.623047"/>
       <use xlink:href="#DejaVuSans-30" x="95.410156"/>
       <use xlink:href="#DejaVuSans-30" x="159.033203"/>
      </g>
     </g>
    </g>
    <g id="text_14">
     <!-- Precision -->
     <g transform="translate(18.654687 165.587031)rotate(-90)scale(0.1 -0.1)">
      <defs>
       <path id="DejaVuSans-50" d="M 1259 4147 
L 1259 2394 
L 2053 2394 
Q 2494 2394 2734 2622 
Q 2975 2850 2975 3272 
Q 2975 3691 2734 3919 
Q 2494 4147 2053 4147 
L 1259 4147 
z
M 628 4666 
L 2053 4666 
Q 2838 4666 3239 4311 
Q 3641 3956 3641 3272 
Q 3641 2581 3239 2228 
Q 2838 1875 2053 1875 
L 1259 1875 
L 1259 0 
L 628 0 
L 628 4666 
z
" transform="scale(0.015625)"/>
       <path id="DejaVuSans-72" d="M 2631 2963 
Q 2534 3019 2420 3045 
Q 2306 3072 2169 3072 
Q 1681 3072 1420 2755 
Q 1159 2438 1159 1844 
L 1159 0 
L 581 0 
L 581 3500 
L 1159 3500 
L 1159 2956 
Q 1341 3275 1631 3429 
Q 1922 3584 2338 3584 
Q 2397 3584 2469 3576 
Q 2541 3569 2628 3553 
L 2631 2963 
z
" transform="scale(0.015625)"/>
       <path id="DejaVuSans-69" d="M 603 3500 
L 1178 3500 
L 1178 0 
L 603 0 
L 603 3500 
z
M 603 4863 
L 1178 4863 
L 1178 4134 
L 603 4134 
L 603 4863 
z
" transform="scale(0.015625)"/>
       <path id="DejaVuSans-73" d="M 2834 3397 
L 2834 2853 
Q 2591 2978 2328 3040 
Q 2066 3103 1784 3103 
Q 1356 3103 1142 2972 
Q 928 2841 928 2578 
Q 928 2378 1081 2264 
Q 1234 2150 1697 2047 
L 1894 2003 
Q 2506 1872 2764 1633 
Q 3022 1394 3022 966 
Q 3022 478 2636 193 
Q 2250 -91 1575 -91 
Q 1294 -91 989 -36 
Q 684 19 347 128 
L 347 722 
Q 666 556 975 473 
Q 1284 391 1588 391 
Q 1994 391 2212 530 
Q 2431 669 2431 922 
Q 2431 1156 2273 1281 
Q 2116 1406 1581 1522 
L 1381 1569 
Q 847 1681 609 1914 
Q 372 2147 372 2553 
Q 372 3047 722 3315 
Q 1072 3584 1716 3584 
Q 2034 3584 2315 3537 
Q 2597 3491 2834 3397 
z
" transform="scale(0.015625)"/>
       <path id="DejaVuSans-6f" d="M 1959 3097 
Q 1497 3097 1228 2736 
Q 959 2375 959 1747 
Q 959 1119 1226 758 
Q 1494 397 1959 397 
Q 2419 397 2687 759 
Q 2956 1122 2956 1747 
Q 2956 2369 2687 2733 
Q 2419 3097 1959 3097 
z
M 1959 3584 
Q 2709 3584 3137 3096 
Q 3566 2609 3566 1747 
Q 3566 888 3137 398 
Q 2709 -91 1959 -91 
Q 1206 -91 779 398 
Q 353 888 353 1747 
Q 353 2609 779 3096 
Q 1206 3584 1959 3584 
z
" transform="scale(0.015625)"/>
       <path id="DejaVuSans-6e" d="M 3513 2113 
L 3513 0 
L 2938 0 
L 2938 2094 
Q 2938 2591 2744 2837 
Q 2550 3084 2163 3084 
Q 1697 3084 1428 2787 
Q 1159 2491 1159 1978 
L 1159 0 
L 581 0 
L 581 3500 
L 1159 3500 
L 1159 2956 
Q 1366 3272 1645 3428 
Q 1925 3584 2291 3584 
Q 2894 3584 3203 3211 
Q 3513 2838 3513 2113 
z
" transform="scale(0.015625)"/>
      </defs>
      <use xlink:href="#DejaVuSans-50"/>
      <use xlink:href="#DejaVuSans-72" x="58.552734"/>
      <use xlink:href="#DejaVuSans-65" x="97.416016"/>
      <use xlink:href="#DejaVuSans-63" x="158.939453"/>
      <use xlink:href="#DejaVuSans-69" x="213.919922"/>
      <use xlink:href="#DejaVuSans-73" x="241.703125"/>
      <use xlink:href="#DejaVuSans-69" x="293.802734"/>
      <use xlink:href="#DejaVuSans-6f" x="321.585938"/>
      <use xlink:href="#DejaVuSans-6e" x="382.767578"/>
     </g>
    </g>
   </g>
   <g id="line2d_13">
    <path d="M 69.233508 54.327273 
L 69.555359 54.327273 
L 69.662643 181.858065 
L 69.953841 133.396364 
L 70.122429 119.138003 
L 70.137756 177.872727 
L 70.229713 167.283117 
L 70.643521 135.841799 
L 71.103308 116.586399 
L 71.37918 108.85768 
L 71.37918 122.023412 
L 71.486464 118.926203 
L 72.053535 106.346411 
L 72.620605 97.867521 
L 72.620605 106.346411 
L 72.727889 104.796905 
L 72.988435 101.392208 
L 72.988435 109.019332 
L 73.095718 107.546853 
L 73.816051 99.39923 
L 74.597689 92.978365 
L 75.011497 90.267769 
L 75.011497 95.295714 
L 75.118781 94.565996 
L 76.007702 89.391171 
L 76.957929 85.153429 
L 77.96946 81.639567 
L 79.042296 78.693711 
L 80.191764 76.169563 
L 81.433189 73.971767 
L 82.68994 72.155704 
L 82.68994 74.361671 
L 82.797223 74.204977 
L 84.222563 72.333898 
L 84.835612 71.633251 
L 84.835612 73.53745 
L 84.942896 73.407652 
L 85.356704 72.923014 
L 85.356704 74.763363 
L 85.463987 74.629794 
L 86.031058 73.951821 
L 86.031058 75.716567 
L 86.138342 75.582405 
L 87.594334 73.914991 
L 87.594334 75.529793 
L 87.701617 75.408039 
L 88.498581 74.545569 
L 88.498581 76.083705 
L 88.605865 75.964631 
L 89.080978 75.452602 
L 89.080978 76.94429 
L 89.188262 76.824169 
L 89.893268 76.065476 
L 89.893268 77.497702 
L 90.000552 77.379486 
L 91.104041 76.230068 
L 91.104041 77.582888 
L 91.211324 77.470774 
L 93.14243 75.622814 
L 95.242123 73.921654 
L 97.541058 72.345698 
L 99.272922 71.316334 
L 99.272922 72.306601 
L 99.380206 72.24323 
L 99.80934 71.99415 
L 99.80934 72.966388 
L 99.916624 72.901861 
L 100.575652 72.515078 
L 100.575652 73.463064 
L 100.682936 73.398448 
L 101.433921 72.958067 
L 101.433921 73.880392 
L 101.541205 73.816133 
L 102.000992 73.545455 
L 102.000992 74.451289 
L 102.108275 74.386313 
L 104.897649 72.832805 
L 105.924507 72.319825 
L 105.924507 73.129889 
L 106.03179 73.075614 
L 107.916917 72.170572 
L 107.916917 72.939063 
L 108.024201 72.888092 
L 108.100832 72.851855 
L 108.100832 73.616181 
L 108.208115 73.563622 
L 108.575945 73.385577 
L 108.575945 74.140268 
L 108.683229 74.086946 
L 109.541498 73.670483 
L 109.541498 74.406895 
L 109.648781 74.354153 
L 111.212057 73.615902 
L 111.212057 74.323069 
L 111.31934 74.272629 
L 112.913269 73.55213 
L 112.913269 74.231818 
L 113.020552 74.183556 
L 113.311751 74.053732 
L 113.419034 75.349072 
L 116.97472 73.799324 
L 120.331165 72.532426 
L 120.331165 73.114108 
L 120.438448 73.075131 
L 121.174107 72.812157 
L 121.174107 73.38424 
L 121.281391 73.345349 
L 121.89444 73.12612 
L 121.89444 73.690202 
L 122.001724 73.651231 
L 122.50749 73.469605 
L 122.50749 74.027004 
L 122.614773 73.987817 
L 124.346637 73.376131 
L 124.346637 73.914991 
L 124.453921 73.877323 
L 124.683815 73.79709 
L 124.683815 74.332445 
L 124.791098 74.294215 
L 127.365905 73.418609 
L 127.365905 73.929474 
L 127.473189 73.893732 
L 128.85255 73.445531 
L 128.85255 73.94365 
L 128.959833 73.908772 
L 129.205053 73.829515 
L 129.205053 74.324514 
L 129.312337 74.289174 
L 129.925386 74.089605 
L 129.925386 74.578602 
L 130.032669 74.543241 
L 131.871817 73.95571 
L 131.871817 74.429584 
L 131.979101 74.39557 
L 132.377583 74.270233 
L 132.377583 74.740162 
L 132.484866 74.705904 
L 132.760739 74.618338 
L 132.760739 75.085268 
L 132.868022 75.050647 
L 132.898675 75.040776 
L 132.95998 75.9514 
L 133.005958 75.935983 
L 134.400645 75.478576 
L 134.400645 75.933362 
L 134.507929 75.898246 
L 137.895026 74.845422 
L 137.925679 75.699655 
L 138.00231 75.676102 
L 138.186225 75.619785 
L 138.186225 76.04955 
L 138.293508 76.016183 
L 138.416118 75.978174 
L 138.416118 76.406355 
L 138.523402 76.372558 
L 139.473628 76.07767 
L 139.473628 76.499365 
L 139.580912 76.465937 
L 139.596238 76.46117 
L 139.596238 76.881965 
L 139.703522 76.848026 
L 140.776358 76.514174 
L 140.776358 76.928008 
L 140.883641 76.894561 
L 141.389407 76.738205 
L 141.435386 77.543868 
L 141.496691 77.524408 
L 141.849194 77.413139 
L 141.849194 77.820487 
L 141.956478 77.786247 
L 142.048435 77.756978 
L 142.048435 78.163069 
L 142.155719 78.128432 
L 142.676811 77.961612 
L 142.676811 78.364146 
L 142.784094 78.329518 
L 143.243881 78.182235 
L 143.243881 78.581595 
L 143.351165 78.546925 
L 144.34737 78.229658 
L 144.34737 78.623135 
L 144.454653 78.588915 
L 145.849341 78.152676 
L 145.849341 78.538472 
L 145.956624 78.505038 
L 146.048582 78.476453 
L 146.048582 78.861122 
L 146.155865 78.827335 
L 146.355106 78.764835 
L 146.431737 79.506045 
L 146.46239 79.49618 
L 147.5199 79.16053 
L 147.5199 79.537708 
L 147.627183 79.503653 
L 148.807303 79.135031 
L 148.807303 79.506118 
L 148.914587 79.472655 
L 149.834161 79.189433 
L 149.834161 79.555774 
L 149.941444 79.522672 
L 151.841897 78.950364 
L 151.841897 79.307892 
L 151.949181 79.275907 
L 154.615945 78.506351 
L 154.615945 78.852425 
L 154.723229 78.822034 
L 155.029753 78.735618 
L 155.029753 79.424145 
L 155.137037 79.393205 
L 156.960859 78.878655 
L 156.960859 79.215353 
L 157.068142 79.185342 
L 157.405319 79.091489 
L 157.405319 79.426418 
L 157.512603 79.396308 
L 158.708049 79.065615 
L 158.708049 79.395677 
L 158.815333 79.366041 
L 160.072084 79.024015 
L 160.072084 79.349137 
L 160.179367 79.319998 
L 160.470566 79.241248 
L 160.470566 79.564878 
L 160.577849 79.53562 
L 161.298182 79.340913 
L 161.298182 79.661602 
L 161.405466 79.632496 
L 165.114414 78.665825 
L 165.114414 78.973967 
L 165.221698 78.946767 
L 165.528222 78.869384 
L 165.528222 79.176139 
L 165.635506 79.148836 
L 167.566611 78.667458 
L 167.673895 79.24145 
L 167.949767 79.172711 
L 167.949767 79.47185 
L 168.05705 79.444903 
L 168.685426 79.288229 
L 168.685426 79.58512 
L 168.79271 79.558254 
L 169.283149 79.436163 
L 169.283149 79.731237 
L 169.390433 79.704379 
L 169.819567 79.597512 
L 169.926851 80.450114 
L 170.984361 80.182207 
L 170.984361 80.472127 
L 171.091644 80.444958 
L 171.290885 80.39465 
L 171.290885 80.683636 
L 171.398169 80.656332 
L 171.612736 80.601893 
L 171.612736 80.88991 
L 171.72002 80.862482 
L 172.011218 80.788317 
L 172.011218 81.075163 
L 172.118502 81.047653 
L 172.210459 81.024118 
L 172.210459 81.31034 
L 172.317743 81.282645 
L 172.731551 81.176351 
L 172.823508 82.006068 
L 172.838835 82.002031 
L 173.267969 81.889483 
L 173.267969 82.172545 
L 173.375253 82.144268 
L 173.666451 82.067803 
L 173.666451 82.349734 
L 173.773735 82.321387 
L 174.156891 82.220617 
L 174.156891 82.501186 
L 174.264174 82.472821 
L 175.321684 82.196256 
L 175.321684 82.473752 
L 175.428968 82.445726 
L 175.781471 82.354031 
L 175.781471 82.630286 
L 175.888755 82.602227 
L 176.440499 82.458801 
L 176.440499 82.733328 
L 176.547783 82.705342 
L 178.06508 82.31536 
L 178.06508 82.585831 
L 178.172363 82.558403 
L 178.862044 82.383344 
L 178.862044 82.65183 
L 178.969327 82.624539 
L 179.459767 82.500445 
L 179.459767 82.767443 
L 179.56705 82.74019 
L 180.455972 82.516375 
L 180.455972 82.780979 
L 180.563255 82.753957 
L 180.86978 82.677035 
L 180.86978 82.940614 
L 180.977064 82.913544 
L 181.130326 82.87496 
L 181.130326 83.137873 
L 181.23761 83.110682 
L 181.36022 83.079669 
L 181.36022 83.341988 
L 181.467503 83.314663 
L 182.785559 82.983114 
L 182.785559 83.242166 
L 182.892843 83.215276 
L 185.406345 82.599279 
L 185.436997 83.098352 
L 185.513628 83.079669 
L 185.774174 83.01633 
L 185.774174 83.268732 
L 185.881458 83.242507 
L 186.923642 82.990199 
L 186.938968 83.736066 
L 187.030925 83.713453 
L 188.471591 83.363662 
L 188.471591 83.610267 
L 188.578875 83.584337 
L 189.421817 83.382184 
L 189.421817 83.626835 
L 189.529101 83.601095 
L 190.647916 83.335334 
L 190.647916 83.577527 
L 190.7552 83.552089 
L 192.609674 83.119261 
L 192.609674 83.357657 
L 192.716957 83.332809 
L 192.839567 83.304462 
L 192.839567 83.54237 
L 192.946851 83.517412 
L 195.276438 82.985792 
L 195.276438 83.219177 
L 195.383722 83.194968 
L 195.690246 83.126022 
L 195.690246 83.358611 
L 195.79753 83.334366 
L 196.104054 83.265318 
L 196.104054 83.497115 
L 196.211338 83.472835 
L 196.901019 83.317714 
L 196.901019 83.548052 
L 197.008302 83.523883 
L 197.560047 83.400212 
L 197.560047 83.629348 
L 197.66733 83.605236 
L 198.571578 83.403579 
L 198.571578 83.630922 
L 198.678861 83.606998 
L 200.993122 83.100266 
L 200.993122 83.323501 
L 201.100406 83.300259 
L 202.755639 82.946331 
L 202.755639 83.166655 
L 202.862923 83.143842 
L 203.154121 83.082101 
L 203.154121 83.301739 
L 203.261405 83.278889 
L 203.368688 83.256074 
L 203.368688 83.475322 
L 203.475972 83.452374 
L 203.583256 83.429461 
L 203.583256 83.64832 
L 203.690539 83.625274 
L 203.935759 83.572733 
L 203.935759 83.790988 
L 204.043043 83.767892 
L 204.104347 83.75471 
L 204.104347 83.972651 
L 204.211631 83.949444 
L 205.330446 83.709575 
L 205.330446 83.925563 
L 205.43773 83.9026 
L 205.912843 83.801337 
L 205.912843 84.016385 
L 206.020126 83.993451 
L 206.158063 83.964017 
L 206.158063 84.178644 
L 206.265346 84.155628 
L 207.583402 83.875733 
L 207.583402 84.088168 
L 207.690686 84.065457 
L 207.920579 84.016907 
L 207.920579 84.228795 
L 208.027863 84.206034 
L 208.089168 84.193043 
L 208.196451 84.804501 
L 208.594933 84.718705 
L 208.594933 84.929416 
L 208.702217 84.906243 
L 208.809501 84.883105 
L 208.916784 85.700508 
L 209.070047 85.666672 
L 209.070047 85.876462 
L 209.17733 85.852665 
L 209.958968 85.680358 
L 209.958968 85.88882 
L 210.066252 85.865164 
L 210.35745 85.801131 
L 210.35745 86.008979 
L 210.464734 85.985301 
L 210.939847 85.880863 
L 210.939847 86.087841 
L 211.04713 86.064202 
L 211.277024 86.013665 
L 211.277024 86.220123 
L 211.384308 86.196444 
L 212.058662 86.048403 
L 212.058662 86.253724 
L 212.165945 86.23015 
L 212.886278 86.072762 
L 212.886278 86.276895 
L 212.993562 86.253439 
L 214.679447 85.889326 
L 214.679447 86.090981 
L 214.786731 86.067947 
L 215.154561 85.989227 
L 215.154561 86.190205 
L 215.261844 86.167175 
L 216.441964 85.916031 
L 216.441964 86.115266 
L 216.549248 86.092491 
L 216.779141 86.043796 
L 216.779141 86.242551 
L 216.886425 86.219738 
L 217.131644 86.167716 
L 217.131644 86.365972 
L 217.238928 86.343126 
L 217.591431 86.268293 
L 217.683389 86.643793 
L 217.698715 86.640512 
L 217.744694 86.630672 
L 217.744694 86.828015 
L 217.851977 86.804942 
L 219.261991 86.504706 
L 219.261991 86.700079 
L 219.369274 86.677327 
L 221.223748 86.289037 
L 221.223748 86.481932 
L 221.331032 86.459622 
L 221.438316 86.437343 
L 221.453642 86.819275 
L 221.545599 86.799982 
L 221.898103 86.726239 
L 221.898103 86.918195 
L 222.005386 86.895688 
L 222.618435 86.767667 
L 222.618435 86.958714 
L 222.725719 86.936285 
L 223.323442 86.811884 
L 223.323442 87.002049 
L 223.430726 86.979693 
L 223.98247 86.865201 
L 223.98247 87.054545 
L 224.089754 87.03225 
L 224.472909 86.952868 
L 224.472909 87.141598 
L 224.580193 87.119314 
L 225.085959 87.014669 
L 225.085959 87.202644 
L 225.193242 87.180407 
L 225.561072 87.104395 
L 225.561072 87.291782 
L 225.668356 87.269554 
L 228.932843 86.607225 
L 228.932843 86.79075 
L 229.040127 86.769316 
L 229.116758 86.754024 
L 229.116758 86.93731 
L 229.224041 86.915805 
L 229.683828 86.823963 
L 229.683828 87.006589 
L 229.791112 86.985116 
L 229.9597 86.951429 
L 229.9597 87.133717 
L 230.066984 87.112198 
L 230.235573 87.078441 
L 230.235573 87.260393 
L 230.342856 87.23883 
L 230.526771 87.20193 
L 230.588076 87.734148 
L 230.634055 87.724793 
L 230.802643 87.690536 
L 230.802643 87.871736 
L 230.909927 87.849856 
L 232.749075 87.479168 
L 232.749075 87.658249 
L 232.856358 87.636765 
L 233.423429 87.523665 
L 233.423429 87.702004 
L 233.530712 87.68058 
L 233.668649 87.653076 
L 233.668649 87.831125 
L 233.775932 87.809652 
L 234.220393 87.720985 
L 234.220393 88.075835 
L 234.327676 88.05428 
L 235.063336 87.907215 
L 235.063336 88.08372 
L 235.170619 88.06227 
L 235.645732 87.967603 
L 235.645732 88.14348 
L 235.753016 88.122067 
L 237.009767 87.873242 
L 237.009767 88.047706 
L 237.117051 88.026526 
L 237.147703 88.02048 
L 237.147703 88.194774 
L 237.254987 88.173522 
L 237.776079 88.070673 
L 237.776079 88.244309 
L 237.883362 88.223105 
L 238.082603 88.183797 
L 238.082603 88.357097 
L 238.189887 88.335863 
L 238.205213 88.332831 
L 238.205213 88.50598 
L 238.312497 88.484669 
L 238.511738 88.445163 
L 238.54239 88.784632 
L 238.619021 88.769316 
L 238.956198 88.702088 
L 239.002177 89.037454 
L 239.063482 89.025145 
L 239.339354 88.969864 
L 239.339354 89.141745 
L 239.446638 89.12019 
L 240.044361 89.000585 
L 240.044361 89.171751 
L 240.151645 89.150267 
L 240.519474 89.076807 
L 240.580779 89.405803 
L 240.626758 89.39656 
L 240.718715 89.37809 
L 240.718715 89.548517 
L 240.825999 89.52689 
L 241.101871 89.471399 
L 241.101871 89.64143 
L 241.209155 89.619795 
L 241.668941 89.527374 
L 241.699594 89.860067 
L 241.776225 89.84457 
L 241.944814 89.810526 
L 241.944814 89.979668 
L 242.052097 89.957937 
L 242.266665 89.914553 
L 242.266665 90.083362 
L 242.373948 90.061609 
L 243.354827 89.863943 
L 243.354827 90.031706 
L 243.462111 90.01012 
L 243.845266 89.933237 
L 243.845266 90.100517 
L 243.95255 90.07895 
L 244.611578 89.947037 
L 244.626904 90.277018 
L 244.718862 90.258524 
L 245.13267 90.175535 
L 245.13267 90.341549 
L 245.239953 90.319999 
L 245.347237 90.298474 
L 245.408542 90.783308 
L 245.454521 90.773973 
L 245.837677 90.696361 
L 245.837677 90.861624 
L 245.94496 90.839855 
L 246.098222 90.808802 
L 246.098222 90.973803 
L 246.205506 90.952 
L 246.31279 90.930224 
L 246.31279 91.095004 
L 246.420073 91.073158 
L 246.450726 91.066921 
L 246.450726 91.23155 
L 246.558009 91.209641 
L 246.87986 91.144069 
L 246.87986 91.308287 
L 246.987144 91.286387 
L 247.830087 91.115208 
L 247.830087 91.278557 
L 247.93737 91.25679 
L 248.565746 91.12981 
L 248.565746 91.292487 
L 248.673029 91.270801 
L 249.378036 91.128924 
L 249.454667 91.437297 
L 249.48532 91.431105 
L 249.745866 91.378559 
L 249.745866 91.540131 
L 249.853149 91.518445 
L 250.190326 91.450454 
L 250.190326 91.611618 
L 250.29761 91.589944 
L 250.650113 91.518909 
L 250.757397 91.818622 
L 251.416425 91.685575 
L 251.416425 91.845615 
L 251.523709 91.823955 
L 251.753602 91.777625 
L 251.753602 91.937354 
L 251.860886 91.915682 
L 252.504587 91.786173 
L 252.504587 91.945247 
L 252.611871 91.92366 
L 252.78046 91.889786 
L 252.78046 92.048604 
L 252.887743 92.026991 
L 252.964374 92.011568 
L 252.964374 92.170207 
L 253.071658 92.148547 
L 253.148289 92.133091 
L 253.240246 92.431302 
L 253.255573 92.42819 
L 253.316878 92.415747 
L 253.316878 92.574016 
L 253.424161 92.552172 
L 253.868622 92.461938 
L 253.868622 92.619727 
L 253.975906 92.597922 
L 254.665586 92.458339 
L 254.665586 92.61545 
L 254.77287 92.593741 
L 255.171352 92.513323 
L 255.171352 92.669998 
L 255.278635 92.648318 
L 256.259514 92.451232 
L 256.259514 92.607005 
L 256.366798 92.585486 
L 256.872563 92.484363 
L 256.872563 92.639623 
L 256.979847 92.618156 
L 257.516265 92.511181 
L 257.562244 92.811391 
L 257.623549 92.799112 
L 259.217477 92.482597 
L 259.309434 92.771016 
L 259.32476 92.767977 
L 260.167703 92.601567 
L 260.167703 92.754129 
L 260.274987 92.732971 
L 260.842057 92.621519 
L 260.842057 92.773541 
L 260.949341 92.752446 
L 261.102603 92.722351 
L 261.102603 92.874151 
L 261.209887 92.853031 
L 261.838262 92.729792 
L 261.945546 93.011083 
L 262.006851 92.999022 
L 262.006851 93.150067 
L 262.114135 93.128899 
L 262.543269 93.044455 
L 262.543269 93.195074 
L 262.650553 93.17394 
L 263.294254 93.04762 
L 263.294254 93.197655 
L 263.401538 93.176602 
L 263.585453 93.140563 
L 263.600779 93.43711 
L 263.692737 93.418982 
L 264.688942 93.223674 
L 264.750247 93.509482 
L 264.796225 93.500453 
L 265.608515 93.341627 
L 265.608515 93.489849 
L 265.715799 93.468891 
L 265.777104 93.456924 
L 265.777104 93.605002 
L 265.884388 93.584001 
L 266.006998 93.560028 
L 266.006998 93.707917 
L 266.114281 93.686887 
L 266.129607 93.683884 
L 266.129607 93.831662 
L 266.236891 93.81058 
L 266.558742 93.74747 
L 266.558742 93.894917 
L 266.666025 93.873848 
L 266.834614 93.840784 
L 266.834614 93.988011 
L 266.941898 93.966923 
L 266.987876 93.957892 
L 267.049181 94.239938 
L 267.09516 94.230851 
L 268.229301 94.00801 
L 268.305932 94.285254 
L 268.336585 94.279227 
L 268.535826 94.240096 
L 268.535826 94.386007 
L 268.643109 94.364893 
L 269.501378 94.196781 
L 269.501378 94.341995 
L 269.608662 94.321005 
L 269.777251 94.288067 
L 269.777251 94.433067 
L 269.884534 94.41206 
L 269.930513 94.403063 
L 269.930513 94.547935 
L 270.037796 94.526885 
L 270.053123 94.52388 
L 270.160406 94.792217 
L 270.405626 94.743904 
L 270.405626 94.888383 
L 270.51291 94.867209 
L 270.528236 94.864185 
L 270.574215 95.143781 
L 270.63552 95.131614 
L 270.804108 95.098193 
L 270.850087 95.377285 
L 270.911392 95.365066 
L 271.156611 95.316266 
L 271.263895 95.869959 
L 271.524441 95.81758 
L 271.631725 96.082926 
L 271.708356 96.067457 
L 271.708356 96.210811 
L 271.815639 96.189102 
L 272.060859 96.139565 
L 272.060859 96.282659 
L 272.168143 96.260951 
L 272.489994 96.195961 
L 272.489994 96.338745 
L 272.597277 96.317054 
L 272.94978 96.245943 
L 272.94978 96.388396 
L 273.057064 96.36673 
L 273.271631 96.323463 
L 273.271631 96.465681 
L 273.378915 96.44401 
L 273.654787 96.388386 
L 273.654787 96.530327 
L 273.762071 96.508664 
L 273.976638 96.465404 
L 273.976638 96.607112 
L 274.083922 96.585444 
L 274.237184 96.554529 
L 274.237184 96.696043 
L 274.344468 96.674358 
L 275.723828 96.39752 
L 275.723828 96.538038 
L 275.831112 96.516588 
L 276.505466 96.382256 
L 276.505466 96.522247 
L 276.61275 96.500886 
L 276.628076 96.497836 
L 276.689381 96.905135 
L 276.73536 96.895905 
L 276.873296 96.868237 
L 276.965253 97.129018 
L 276.980579 97.125929 
L 277.149168 97.091979 
L 277.149168 97.231434 
L 277.256452 97.209789 
L 277.409714 97.178905 
L 277.409714 97.318173 
L 277.516998 97.296512 
L 277.700912 97.259429 
L 277.700912 97.398491 
L 277.808196 97.376821 
L 279.110926 97.115411 
L 279.110926 97.25356 
L 279.218209 97.232106 
L 279.248862 97.22598 
L 279.248862 97.364022 
L 279.356145 97.342528 
L 279.586039 97.296542 
L 279.586039 97.434353 
L 279.693322 97.412859 
L 279.754627 97.400587 
L 279.754627 97.538272 
L 279.861911 97.516745 
L 280.245067 97.440037 
L 280.245067 97.577397 
L 280.35235 97.555901 
L 280.658875 97.494601 
L 280.689528 97.899615 
L 280.766159 97.884179 
L 281.394534 97.758017 
L 281.394534 97.894588 
L 281.501818 97.873055 
L 281.915626 97.790198 
L 282.007583 98.04416 
L 282.02291 98.041081 
L 282.191498 98.007242 
L 282.191498 98.143267 
L 282.298782 98.121695 
L 282.620633 98.057106 
L 282.666611 98.319308 
L 282.727916 98.306957 
L 283.310313 98.189974 
L 283.310313 98.325262 
L 283.417597 98.303715 
L 283.570859 98.272971 
L 283.570859 98.408084 
L 283.678143 98.386524 
L 284.030646 98.315832 
L 284.030646 98.450649 
L 284.13793 98.429115 
L 284.214561 98.413747 
L 284.214561 98.548435 
L 284.321844 98.526873 
L 284.613043 98.468452 
L 284.613043 98.602884 
L 284.720326 98.581335 
L 285.287397 98.467785 
L 285.31805 98.729632 
L 285.394681 98.714246 
L 285.76251 98.640539 
L 285.793163 98.901741 
L 285.869794 98.88633 
L 286.237623 98.812506 
L 286.314255 99.063804 
L 286.344907 99.057631 
L 286.452191 99.03604 
L 286.452191 99.169255 
L 286.559474 99.147622 
L 286.574801 99.144534 
L 286.636105 99.531396 
L 286.682084 99.522056 
L 286.850673 99.487846 
L 286.911978 99.873984 
L 286.957956 99.864588 
L 287.06524 99.842678 
L 287.06524 99.975408 
L 287.172524 99.953457 
L 287.18785 99.950323 
L 287.18785 100.082963 
L 287.295133 100.060974 
L 287.846878 99.948221 
L 287.846878 100.080462 
L 287.954161 100.05854 
L 288.046119 100.039767 
L 288.046119 100.171875 
L 288.153402 100.14993 
L 288.168729 100.146797 
L 288.168729 100.278816 
L 288.276012 100.256834 
L 288.383296 100.234873 
L 288.383296 100.366751 
L 288.490579 100.34475 
L 288.689821 100.303946 
L 288.689821 100.43563 
L 288.797104 100.413627 
L 289.348848 100.300801 
L 289.348848 100.432091 
L 289.456132 100.410156 
L 289.946572 100.310145 
L 289.946572 100.441079 
L 290.053855 100.419199 
L 290.11516 100.406705 
L 290.11516 100.537525 
L 290.222444 100.515617 
L 290.574947 100.44378 
L 290.574947 100.574324 
L 290.682231 100.552444 
L 291.249301 100.437138 
L 291.249301 100.697417 
L 291.356585 100.675547 
L 291.908329 100.563399 
L 291.908329 100.693145 
L 292.015613 100.671342 
L 292.153549 100.64334 
L 292.153549 100.772932 
L 292.260833 100.751117 
L 292.306811 100.741773 
L 292.337464 101.123915 
L 292.414095 101.108228 
L 292.858556 101.017452 
L 292.935187 101.38906 
L 292.965839 101.382766 
L 293.103775 101.354465 
L 293.103775 101.483413 
L 293.211059 101.461365 
L 293.4103 101.420475 
L 293.4103 101.549237 
L 293.517584 101.52719 
L 293.594215 101.511455 
L 293.640193 101.759241 
L 293.701498 101.746598 
L 293.946718 101.696095 
L 293.946718 101.824514 
L 294.054002 101.802394 
L 294.253243 101.761369 
L 294.253243 101.889604 
L 294.360526 101.867485 
L 294.498462 101.839076 
L 294.544441 102.213743 
L 294.605746 102.201034 
L 295.019554 102.11542 
L 295.019554 102.243173 
L 295.126838 102.220969 
L 295.2801 102.189285 
L 295.326079 102.434914 
L 295.387384 102.422191 
L 295.571299 102.384063 
L 295.586625 102.763031 
L 295.678582 102.743845 
L 295.801192 102.718287 
L 295.816518 103.096717 
L 295.908476 103.077421 
L 296.107717 103.035666 
L 296.123043 103.286462 
L 296.215 103.26712 
L 296.352936 103.238134 
L 296.352936 103.36499 
L 296.46022 103.342412 
L 296.490872 103.335965 
L 296.490872 103.462731 
L 296.598156 103.440123 
L 296.874028 103.382086 
L 296.874028 103.508631 
L 296.981312 103.486042 
L 298.238063 103.222955 
L 298.253389 103.471357 
L 298.345347 103.452124 
L 298.391325 103.442513 
L 298.391325 103.568213 
L 298.498609 103.545746 
L 298.789807 103.484868 
L 298.789807 103.610344 
L 298.897091 103.587898 
L 299.556119 103.450459 
L 299.556119 103.575522 
L 299.663402 103.553166 
L 299.75536 103.534019 
L 299.75536 103.658964 
L 299.862643 103.63659 
L 300.276452 103.55048 
L 300.276452 103.67514 
L 300.383735 103.652809 
L 300.475693 103.633685 
L 300.475693 103.758227 
L 300.582976 103.735879 
L 300.644281 103.723118 
L 300.644281 103.847558 
L 300.751565 103.825187 
L 300.920153 103.790073 
L 300.920153 103.914357 
L 301.027437 103.891983 
L 301.042763 103.888788 
L 301.042763 104.137182 
L 301.150047 104.114722 
L 301.287983 104.085875 
L 301.287983 104.333956 
L 301.395267 104.311433 
L 301.441245 104.301787 
L 301.456572 104.546418 
L 301.548529 104.527046 
L 302.483429 104.330941 
L 302.483429 104.454322 
L 302.590713 104.431862 
L 302.92789 104.361405 
L 303.004521 104.837743 
L 303.035173 104.831291 
L 303.295719 104.776511 
L 303.295719 105.145153 
L 303.403003 105.122471 
L 303.86279 105.02549 
L 303.86279 105.148058 
L 303.970074 105.125429 
L 304.062031 105.106049 
L 304.062031 105.228503 
L 304.169315 105.205858 
L 304.276598 105.183234 
L 304.276598 105.305566 
L 304.383882 105.282909 
L 304.445187 105.269971 
L 304.445187 105.392204 
L 304.55247 105.369526 
L 304.567797 105.366288 
L 304.567797 105.488445 
L 304.67508 105.465737 
L 305.012257 105.3945 
L 305.012257 105.516424 
L 305.119541 105.493747 
L 305.180846 105.480797 
L 305.211498 105.717931 
L 305.288129 105.701682 
L 305.947157 105.562368 
L 305.947157 105.683789 
L 306.054441 105.661129 
L 306.253682 105.6191 
L 306.330313 105.845377 
L 306.360966 105.838892 
L 306.468249 105.816205 
L 306.468249 105.937327 
L 306.575533 105.914609 
L 306.682817 105.89191 
L 306.7901 106.111119 
L 306.820753 106.104614 
L 306.820753 106.22552 
L 306.928036 106.202712 
L 306.989341 106.189688 
L 306.989341 106.310498 
L 307.096625 106.28767 
L 307.142604 106.277892 
L 307.142604 106.398613 
L 307.249887 106.375762 
L 307.418476 106.339894 
L 307.418476 106.460467 
L 307.525759 106.437616 
L 307.725 106.395231 
L 307.740327 106.632767 
L 307.832284 106.613143 
L 308.552617 106.459927 
L 308.613922 106.806758 
L 308.6599 106.796948 
L 309.073709 106.708824 
L 309.073709 106.82852 
L 309.180992 106.80567 
L 309.656106 106.704719 
L 309.732737 107.165865 
L 309.763389 107.159311 
L 309.993283 107.110214 
L 310.100566 107.325595 
L 310.45307 107.250225 
L 310.45307 107.369169 
L 310.560353 107.346223 
L 310.744268 107.306933 
L 310.744268 107.425727 
L 310.851552 107.402784 
L 310.943509 107.383135 
L 311.035466 107.600774 
L 311.050793 107.597488 
L 311.204055 107.564658 
L 311.250034 107.791833 
L 311.311339 107.77866 
L 311.495253 107.739181 
L 311.495253 107.857553 
L 311.602537 107.834501 
L 311.633189 107.827919 
L 311.633189 107.946213 
L 311.740473 107.923137 
L 312.016345 107.863889 
L 312.016345 108.100081 
L 312.123629 108.076977 
L 312.843962 107.922363 
L 312.843962 108.040058 
L 312.951245 108.017057 
L 312.997224 108.007206 
L 312.997224 108.242412 
L 313.104508 108.219342 
L 313.181139 108.202875 
L 313.227118 108.42794 
L 313.288422 108.414723 
L 313.411032 108.388308 
L 313.411032 108.505673 
L 313.518316 108.482532 
L 313.870819 108.406638 
L 313.870819 108.52378 
L 313.978103 108.500675 
L 314.039408 108.487482 
L 314.116039 108.705018 
L 314.146691 108.6984 
L 314.253975 108.675249 
L 314.330606 108.892493 
L 314.361259 108.885859 
L 314.407237 108.87591 
L 314.407237 108.992739 
L 314.514521 108.969491 
L 314.5605 108.959533 
L 314.591152 109.186346 
L 314.667783 109.169694 
L 314.943655 109.10983 
L 314.943655 109.226375 
L 315.050939 109.203081 
L 315.418769 109.123368 
L 315.434095 109.352661 
L 315.526052 109.33269 
L 315.970513 109.236364 
L 315.970513 109.352408 
L 316.077797 109.32916 
L 316.154428 109.312566 
L 316.154428 109.428516 
L 316.261711 109.405254 
L 316.399648 109.375374 
L 316.399648 109.607013 
L 316.506931 109.583701 
L 316.997371 109.477381 
L 317.043349 109.813937 
L 317.104654 109.8006 
L 317.441831 109.727359 
L 317.441831 109.842657 
L 317.549115 109.819347 
L 317.595094 109.809362 
L 317.595094 109.92458 
L 317.702377 109.90125 
L 318.008902 109.834702 
L 318.008902 109.949725 
L 318.116185 109.926424 
L 318.729235 109.79365 
L 318.821192 110.003086 
L 318.836518 109.999763 
L 319.143043 109.933404 
L 319.219674 110.260165 
L 319.250327 110.253501 
L 319.280979 110.24684 
L 319.388263 110.452208 
L 319.664135 110.392138 
L 319.664135 110.506334 
L 319.771419 110.482963 
L 320.093269 110.412964 
L 320.169901 110.62424 
L 320.200553 110.617561 
L 320.29251 110.597531 
L 320.29251 110.711417 
L 320.399794 110.688021 
L 320.706319 110.621282 
L 320.706319 110.734978 
L 320.813602 110.711611 
L 321.012843 110.781818 
L 321.012843 110.895356 
L 321.120127 110.871954 
L 321.641219 110.871816 
L 321.671871 111.091597 
L 321.748502 111.074867 
L 322.009048 111.131119 
L 322.009048 111.244168 
L 322.116332 111.220718 
L 322.315573 111.290126 
L 322.392204 111.499092 
L 322.422857 111.492371 
L 322.928622 111.381703 
L 322.943948 111.49096 
L 322.943948 111.603551 
L 323.051232 111.580044 
L 323.740913 111.541634 
L 323.740913 111.653866 
L 323.848196 111.630413 
L 324.307983 111.6421 
L 324.369288 111.852607 
L 324.415267 111.842544 
L 325.304188 111.760223 
L 325.380819 112.077974 
L 325.411472 112.071266 
L 325.70267 112.11894 
L 325.70267 112.230247 
L 325.809954 112.206746 
L 325.917237 112.294471 
L 325.917237 112.405664 
L 326.024521 112.382114 
L 326.484308 112.39235 
L 326.591592 112.7015 
L 326.698875 112.677896 
L 326.698875 112.788708 
L 326.698875 112.899507 
L 326.806159 112.875835 
L 327.342577 112.868286 
L 327.434534 113.068995 
L 327.449861 113.065613 
L 328.62998 112.916277 
L 328.62998 113.026237 
L 328.737264 113.002691 
L 329.181725 112.905346 
L 329.181725 113.015074 
L 329.273682 113.214282 
L 329.289008 113.210915 
L 329.672164 113.236364 
L 329.702817 113.448568 
L 329.779448 113.4317 
L 330.30054 113.426465 
L 330.361845 113.631342 
L 330.407823 113.621215 
L 330.806305 113.642572 
L 330.913589 114.054592 
L 331.312071 114.075239 
L 331.388702 114.275637 
L 331.419355 114.268841 
L 331.450007 114.262047 
L 331.465333 114.367269 
L 331.541964 114.567404 
L 331.572617 114.56058 
L 331.986425 114.57699 
L 331.986425 114.685357 
L 332.093709 114.661476 
L 332.109035 114.766374 
L 332.323602 114.71859 
L 332.323602 114.826803 
L 332.430886 114.802898 
L 332.645453 114.863222 
L 332.645453 114.971286 
L 332.752737 114.947355 
L 332.967304 115.007478 
L 332.967304 115.115394 
L 333.074588 115.091437 
L 333.089914 115.195873 
L 333.304481 115.14794 
L 333.335134 115.356587 
L 333.411765 115.339432 
L 333.626332 115.399062 
L 333.656984 115.607372 
L 333.733616 115.59017 
L 334.193403 115.594518 
L 334.193403 115.701868 
L 334.300686 115.6778 
L 334.545906 115.730062 
L 334.622537 116.141467 
L 334.65319 116.134552 
L 334.929062 116.179386 
L 334.929062 116.286374 
L 335.036345 116.262151 
L 335.235586 116.324077 
L 335.235586 116.430925 
L 335.34287 116.406676 
L 335.756678 116.419959 
L 335.756678 116.526588 
L 335.863962 116.50235 
L 336.109182 116.447018 
L 336.109182 116.553504 
L 336.109182 116.659977 
L 336.216465 116.635721 
L 336.231791 116.738673 
L 336.461685 116.686678 
L 336.492337 116.892354 
L 336.568969 116.874988 
L 336.982777 116.887481 
L 337.09006 117.287345 
L 337.105387 117.389854 
L 337.136039 117.382869 
L 337.136039 117.488843 
L 337.243323 117.464369 
L 337.381259 117.5388 
L 337.381259 117.64466 
L 337.488542 117.62015 
L 337.672457 117.683916 
L 337.672457 117.789645 
L 337.779741 117.765107 
L 337.795067 117.867275 
L 338.116918 117.793664 
L 338.116918 117.899206 
L 338.224202 117.874667 
L 338.653336 117.882036 
L 338.714641 118.289172 
L 338.76062 118.278614 
L 338.883229 118.250478 
L 338.898556 118.352148 
L 338.898556 118.457323 
L 339.005839 118.432648 
L 339.388995 118.449662 
L 339.388995 118.554635 
L 339.496279 118.529969 
L 339.634215 118.603155 
L 339.634215 118.708016 
L 339.741498 118.683315 
L 339.772151 118.676262 
L 339.772151 118.781061 
L 339.879435 119.070558 
L 339.894761 119.067013 
L 339.894761 119.171722 
L 339.910087 119.168171 
L 339.910087 119.272863 
L 340.017371 119.247978 
L 340.201285 119.309938 
L 340.201285 119.414502 
L 340.308569 119.389592 
L 340.553789 119.437151 
L 340.553789 119.541566 
L 340.661072 119.516641 
L 340.952271 119.553343 
L 341.013576 119.851762 
L 341.059554 119.841047 
L 341.151512 119.819626 
L 341.151512 119.92377 
L 341.212817 120.117684 
L 341.258795 120.106934 
L 341.887171 120.064223 
L 341.887171 120.168058 
L 341.994455 120.143025 
L 342.714787 120.078968 
L 342.74544 120.278852 
L 342.822071 120.260996 
L 343.021312 120.214616 
L 343.036638 120.314435 
L 343.143922 120.599425 
L 343.327837 120.659686 
L 343.43512 120.944135 
L 344.109475 120.889125 
L 344.170779 121.080545 
L 344.216758 121.069761 
L 344.262737 121.05898 
L 344.278063 121.158214 
L 344.278063 121.261029 
L 344.385347 121.235816 
L 344.538609 121.302543 
L 344.538609 121.405246 
L 344.645893 121.380004 
L 344.845134 121.333177 
L 344.845134 121.435762 
L 344.906439 121.83149 
L 344.952417 121.820618 
L 344.998396 121.80975 
L 344.998396 121.912226 
L 344.998396 122.014692 
L 345.10568 121.989272 
L 345.718729 121.946584 
L 345.718729 122.048779 
L 345.826012 122.023412 
L 345.841339 122.121932 
L 346.025253 122.078432 
L 346.025253 122.1805 
L 346.132537 122.155114 
L 346.178516 122.14424 
L 346.178516 122.246244 
L 346.178516 122.348238 
L 346.285799 122.322805 
L 346.301126 122.421114 
L 346.60765 122.348458 
L 346.60765 122.450282 
L 346.714934 122.424853 
L 347.113416 122.330565 
L 347.128742 122.42858 
L 347.205373 122.613641 
L 347.236026 122.606372 
L 347.588529 122.62434 
L 347.649834 122.914037 
L 347.695813 122.903106 
L 348.124947 122.902471 
L 348.1556 123.097589 
L 348.232231 123.079359 
L 348.477451 123.122157 
L 348.554082 123.407014 
L 348.584734 123.3997 
L 349.075174 123.383704 
L 349.182457 123.559718 
L 349.397024 123.609242 
L 349.473656 123.892887 
L 349.504308 123.885547 
L 349.519634 123.982483 
L 349.841485 123.905406 
L 349.90279 124.192113 
L 349.948769 124.181075 
L 350.040726 124.259398 
L 350.132684 124.438002 
L 350.14801 124.434312 
L 350.684428 124.405577 
L 350.684428 124.505711 
L 350.791712 124.479921 
L 351.420087 124.429125 
L 351.420087 124.528996 
L 351.527371 124.503265 
L 351.711285 124.558962 
L 351.726612 124.95422 
L 351.818569 124.932059 
L 351.864548 124.920984 
L 351.879874 125.01695 
L 351.925853 125.304727 
L 351.987158 125.289892 
L 352.247704 125.326404 
L 352.309009 125.5105 
L 352.354987 125.499357 
L 352.584881 125.543047 
L 352.600207 125.738001 
L 352.692164 125.715672 
L 352.814774 125.685923 
L 352.814774 125.785171 
L 352.860753 125.972442 
L 352.922058 125.957521 
L 353.029341 126.030573 
L 353.136625 126.202656 
L 353.335866 126.253101 
L 353.335866 126.352109 
L 353.44315 126.325912 
L 353.458476 126.421129 
L 353.519781 126.40615 
L 353.611738 126.581478 
L 353.627064 126.577727 
L 354.209461 126.53415 
L 354.209461 126.632824 
L 354.316745 126.606611 
L 354.561965 126.645316 
L 354.62327 126.925885 
L 354.669248 126.91462 
L 354.684574 127.009338 
L 354.914468 126.953001 
L 354.929794 127.146004 
L 355.021752 127.123437 
L 355.037078 127.218006 
L 355.098383 127.202952 
L 355.205666 127.37314 
L 355.220993 127.46761 
L 355.343602 127.437427 
L 355.404907 127.618677 
L 355.450886 127.60734 
L 355.55817 127.679004 
L 355.634801 128.150343 
L 355.665453 128.142739 
L 355.742084 128.123734 
L 355.757411 128.217912 
L 355.818716 128.496514 
L 355.864694 128.485063 
L 355.956652 128.462173 
L 355.971978 128.556229 
L 355.971978 128.654089 
L 356.079262 128.627336 
L 356.293829 128.671637 
L 356.401112 128.937992 
L 356.431765 128.93033 
L 356.431765 129.027995 
L 356.462417 129.215606 
L 356.539048 129.196389 
L 356.676985 129.161823 
L 356.676985 129.259381 
L 356.753616 129.630204 
L 356.784268 129.622483 
L 356.799594 129.716092 
L 356.906878 129.68905 
L 356.922204 129.880021 
L 357.014162 129.856803 
L 357.366665 129.865193 
L 357.397317 130.149165 
L 357.473949 130.129781 
L 357.826452 130.137822 
L 357.872431 130.514372 
L 357.933736 130.498818 
L 358.132977 130.545247 
L 358.132977 130.642172 
L 358.24026 130.614938 
L 358.393523 130.576065 
L 358.393523 130.6729 
L 358.454827 131.044507 
L 358.500806 131.032787 
L 358.546785 131.02107 
L 358.546785 131.117808 
L 358.60809 131.392271 
L 358.654068 131.380506 
L 358.883962 131.41833 
L 358.945267 131.595776 
L 358.991246 131.583995 
L 359.098529 131.55652 
L 359.098529 131.65302 
L 359.190487 131.82237 
L 359.205813 131.818435 
L 359.54299 131.828296 
L 359.634947 131.997301 
L 359.650274 131.993363 
L 359.972124 132.006939 
L 359.972124 132.199257 
L 360.079408 132.171665 
L 360.278649 132.216526 
L 360.370606 132.672866 
L 360.385933 132.668906 
L 360.447238 132.74901 
L 360.554521 133.008946 
L 360.569847 133.100838 
L 360.72311 133.061071 
L 360.738436 133.248698 
L 360.830393 133.224804 
L 360.983656 133.280725 
L 360.983656 133.376427 
L 361.090939 133.348532 
L 361.259528 133.400347 
L 361.259528 133.495947 
L 361.366811 133.468038 
L 361.581379 133.507773 
L 361.627357 133.686752 
L 361.688662 133.670785 
L 362.194428 133.634583 
L 362.301712 134.082817 
L 362.317038 134.174001 
L 362.408995 134.149969 
L 362.4703 134.514424 
L 362.516279 134.502364 
L 362.761499 134.533108 
L 362.761499 134.628105 
L 362.868782 134.599959 
L 362.884108 134.59594 
L 362.884108 134.690891 
L 362.884108 134.880765 
L 362.991392 134.852545 
L 363.129328 134.911143 
L 363.129328 135.195635 
L 363.236612 135.167334 
L 363.297917 135.151171 
L 363.313243 135.241889 
L 363.4052 135.407063 
L 363.420527 135.403013 
L 363.435853 135.398963 
L 363.435853 135.493656 
L 363.435853 135.588339 
L 363.543136 135.559936 
L 363.573789 135.551824 
L 363.573789 135.646458 
L 363.635094 135.91401 
L 363.681072 135.901796 
L 363.77303 135.971917 
L 363.880313 136.321344 
L 364.002923 136.383077 
L 364.079554 136.74014 
L 364.110207 136.731931 
L 364.309448 136.772896 
L 364.386079 136.940881 
L 364.416732 136.932661 
L 364.478037 136.916226 
L 364.493363 137.006322 
L 364.600646 137.260007 
L 364.692604 137.329387 
L 364.692604 137.423485 
L 364.799887 137.394592 
L 364.922497 137.455618 
L 364.95315 137.729347 
L 365.029781 137.708652 
L 365.183043 137.761203 
L 365.275001 138.205652 
L 365.290327 138.201494 
L 365.443589 138.253717 
L 365.489568 138.709926 
L 365.550873 138.693214 
L 365.719461 138.740932 
L 365.76544 139.102824 
L 365.826745 139.086053 
L 365.842071 139.175422 
L 365.88805 139.162836 
L 365.934029 139.617784 
L 365.995333 139.600925 
L 366.102617 139.664869 
L 366.163922 139.928192 
L 366.209901 139.915514 
L 366.301858 139.890168 
L 366.301858 139.983503 
L 366.409142 140.606797 
L 366.470447 140.589779 
L 366.485773 140.678735 
L 366.57773 141.305221 
L 366.593057 141.300935 
L 366.776971 141.342595 
L 366.853602 141.87917 
L 366.884255 141.870553 
L 367.236758 141.864443 
L 367.298063 142.125703 
L 367.344042 142.112764 
L 367.359368 142.108451 
L 367.359368 142.201238 
L 367.466652 142.449247 
L 367.619914 142.498679 
L 367.727198 142.746287 
L 367.742524 142.834555 
L 367.88046 142.795508 
L 367.987744 143.042715 
L 368.24829 143.06131 
L 368.278942 143.237431 
L 368.355573 143.215679 
L 368.447531 143.281934 
L 368.478183 143.550182 
L 368.554814 143.528371 
L 368.784708 143.555216 
L 368.784708 143.739614 
L 368.891991 143.709052 
L 369.06058 143.753176 
L 369.152537 144.187278 
L 369.167863 144.182895 
L 369.18319 144.178512 
L 369.18319 144.270533 
L 369.198516 144.266146 
L 369.259821 144.616512 
L 369.3058 144.60331 
L 369.428409 144.66003 
L 369.520367 145.184734 
L 369.535693 145.180311 
L 369.551019 145.267698 
L 369.612324 145.249992 
L 369.719608 145.952812 
L 369.734934 146.040035 
L 369.765586 146.031115 
L 369.87287 146.274779 
L 370.072111 146.308268 
L 370.148742 146.560469 
L 370.179395 146.551513 
L 370.194721 146.638517 
L 370.225373 146.629556 
L 370.332657 147.055286 
L 370.36331 147.046291 
L 370.36331 147.137672 
L 370.470593 147.380173 
L 370.547224 147.357623 
L 370.562551 147.444405 
L 370.669834 147.869002 
L 370.884401 147.896765 
L 370.961033 148.69389 
L 370.991685 148.684763 
L 371.05299 148.666513 
L 371.068316 148.752963 
L 371.129621 149.371423 
L 371.1756 149.357646 
L 371.206252 149.348464 
L 371.206252 149.439368 
L 371.29821 150.592431 
L 371.313536 150.587785 
L 371.328862 150.673887 
L 371.390167 150.655293 
L 371.482124 150.89948 
L 371.497451 150.894823 
L 371.589408 150.866889 
L 371.589408 150.957531 
L 371.696692 151.830583 
L 371.712018 151.825887 
L 371.712018 151.9164 
L 371.74267 152.178461 
L 371.819302 152.154908 
L 371.834628 152.240643 
L 371.911259 152.217083 
L 371.98789 152.826116 
L 372.018543 152.816642 
L 372.033869 152.811906 
L 372.033869 152.902227 
L 372.141152 153.681303 
L 372.156479 153.676529 
L 372.156479 153.766731 
L 372.171805 153.761954 
L 372.279088 154.269358 
L 372.294415 154.26456 
L 372.294415 154.354665 
L 372.309741 154.349863 
L 372.401698 155.041357 
L 372.417025 155.036525 
L 372.432351 155.031694 
L 372.432351 155.121684 
L 372.478329 155.467006 
L 372.539634 155.44761 
L 372.570287 155.437915 
L 372.570287 155.527825 
L 372.677571 156.571787 
L 372.692897 156.56689 
L 372.692897 156.656656 
L 372.80018 157.608908 
L 372.815507 157.603967 
L 372.815507 157.693597 
L 372.92279 158.912518 
L 372.953443 158.902522 
L 372.953443 158.991987 
L 373.030074 160.307638 
L 373.060726 160.297519 
L 373.076053 160.292461 
L 373.076053 160.381757 
L 373.183336 162.129914 
L 373.198662 162.124775 
L 373.198662 162.213861 
L 373.305946 165.821948 
L 373.321272 165.816646 
L 373.321272 165.905345 
L 373.428556 169.761394 
L 373.459208 169.750443 
L 373.459208 169.838727 
L 373.566492 191.949871 
L 373.581818 191.943423 
L 373.581818 192.02958 
L 373.581818 199.921655 
L 373.581818 199.921655 
" clip-path="url(#p76bbc9a9fa)" style="fill: none; stroke: #1f77b4; stroke-width: 1.5; stroke-linecap: square"/>
   </g>
   <g id="patch_3">
    <path d="M 54 252 
L 54 34.56 
" style="fill: none; stroke: #000000; stroke-width: 0.8; stroke-linejoin: miter; stroke-linecap: square"/>
   </g>
   <g id="patch_4">
    <path d="M 388.8 252 
L 388.8 34.56 
" style="fill: none; stroke: #000000; stroke-width: 0.8; stroke-linejoin: miter; stroke-linecap: square"/>
   </g>
   <g id="patch_5">
    <path d="M 54 252 
L 388.8 252 
" style="fill: none; stroke: #000000; stroke-width: 0.8; stroke-linejoin: miter; stroke-linecap: square"/>
   </g>
   <g id="patch_6">
    <path d="M 54 34.56 
L 388.8 34.56 
" style="fill: none; stroke: #000000; stroke-width: 0.8; stroke-linejoin: miter; stroke-linecap: square"/>
   </g>
   <g id="text_15">
    <!-- Precision-recall curve -->
    <g transform="translate(157.415625 28.56)scale(0.12 -0.12)">
     <defs>
      <path id="DejaVuSans-2d" d="M 313 2009 
L 1997 2009 
L 1997 1497 
L 313 1497 
L 313 2009 
z
" transform="scale(0.015625)"/>
      <path id="DejaVuSans-20" transform="scale(0.015625)"/>
      <path id="DejaVuSans-75" d="M 544 1381 
L 544 3500 
L 1119 3500 
L 1119 1403 
Q 1119 906 1312 657 
Q 1506 409 1894 409 
Q 2359 409 2629 706 
Q 2900 1003 2900 1516 
L 2900 3500 
L 3475 3500 
L 3475 0 
L 2900 0 
L 2900 538 
Q 2691 219 2414 64 
Q 2138 -91 1772 -91 
Q 1169 -91 856 284 
Q 544 659 544 1381 
z
M 1991 3584 
L 1991 3584 
z
" transform="scale(0.015625)"/>
      <path id="DejaVuSans-76" d="M 191 3500 
L 800 3500 
L 1894 563 
L 2988 3500 
L 3597 3500 
L 2284 0 
L 1503 0 
L 191 3500 
z
" transform="scale(0.015625)"/>
     </defs>
     <use xlink:href="#DejaVuSans-50"/>
     <use xlink:href="#DejaVuSans-72" x="58.552734"/>
     <use xlink:href="#DejaVuSans-65" x="97.416016"/>
     <use xlink:href="#DejaVuSans-63" x="158.939453"/>
     <use xlink:href="#DejaVuSans-69" x="213.919922"/>
     <use xlink:href="#DejaVuSans-73" x="241.703125"/>
     <use xlink:href="#DejaVuSans-69" x="293.802734"/>
     <use xlink:href="#DejaVuSans-6f" x="321.585938"/>
     <use xlink:href="#DejaVuSans-6e" x="382.767578"/>
     <use xlink:href="#DejaVuSans-2d" x="446.146484"/>
     <use xlink:href="#DejaVuSans-72" x="482.230469"/>
     <use xlink:href="#DejaVuSans-65" x="521.09375"/>
     <use xlink:href="#DejaVuSans-63" x="582.617188"/>
     <use xlink:href="#DejaVuSans-61" x="637.597656"/>
     <use xlink:href="#DejaVuSans-6c" x="698.876953"/>
     <use xlink:href="#DejaVuSans-6c" x="726.660156"/>
     <use xlink:href="#DejaVuSans-20" x="754.443359"/>
     <use xlink:href="#DejaVuSans-63" x="786.230469"/>
     <use xlink:href="#DejaVuSans-75" x="841.210938"/>
     <use xlink:href="#DejaVuSans-72" x="904.589844"/>
     <use xlink:href="#DejaVuSans-76" x="945.703125"/>
     <use xlink:href="#DejaVuSans-65" x="1004.882812"/>
    </g>
   </g>
   <g id="legend_1">
    <g id="patch_7">
     <path d="M 221.785938 57.238125 
L 381.8 57.238125 
Q 383.8 57.238125 383.8 55.238125 
L 383.8 41.56 
Q 383.8 39.56 381.8 39.56 
L 221.785938 39.56 
Q 219.785938 39.56 219.785938 41.56 
L 219.785938 55.238125 
Q 219.785938 57.238125 221.785938 57.238125 
z
" style="fill: #ffffff; opacity: 0.8; stroke: #cccccc; stroke-linejoin: miter"/>
    </g>
    <g id="line2d_14">
     <path d="M 223.785938 47.658437 
L 233.785938 47.658437 
L 243.785938 47.658437 
" style="fill: none; stroke: #1f77b4; stroke-width: 1.5; stroke-linecap: square"/>
    </g>
    <g id="text_16">
     <!-- Tokens with bond product -->
     <g transform="translate(251.785938 51.158437)scale(0.1 -0.1)">
      <defs>
       <path id="DejaVuSans-54" d="M -19 4666 
L 3928 4666 
L 3928 4134 
L 2272 4134 
L 2272 0 
L 1638 0 
L 1638 4134 
L -19 4134 
L -19 4666 
z
" transform="scale(0.015625)"/>
       <path id="DejaVuSans-6b" d="M 581 4863 
L 1159 4863 
L 1159 1991 
L 2875 3500 
L 3609 3500 
L 1753 1863 
L 3688 0 
L 2938 0 
L 1159 1709 
L 1159 0 
L 581 0 
L 581 4863 
z
" transform="scale(0.015625)"/>
       <path id="DejaVuSans-77" d="M 269 3500 
L 844 3500 
L 1563 769 
L 2278 3500 
L 2956 3500 
L 3675 769 
L 4391 3500 
L 4966 3500 
L 4050 0 
L 3372 0 
L 2619 2869 
L 1863 0 
L 1184 0 
L 269 3500 
z
" transform="scale(0.015625)"/>
       <path id="DejaVuSans-74" d="M 1172 4494 
L 1172 3500 
L 2356 3500 
L 2356 3053 
L 1172 3053 
L 1172 1153 
Q 1172 725 1289 603 
Q 1406 481 1766 481 
L 2356 481 
L 2356 0 
L 1766 0 
Q 1100 0 847 248 
Q 594 497 594 1153 
L 594 3053 
L 172 3053 
L 172 3500 
L 594 3500 
L 594 4494 
L 1172 4494 
z
" transform="scale(0.015625)"/>
       <path id="DejaVuSans-68" d="M 3513 2113 
L 3513 0 
L 2938 0 
L 2938 2094 
Q 2938 2591 2744 2837 
Q 2550 3084 2163 3084 
Q 1697 3084 1428 2787 
Q 1159 2491 1159 1978 
L 1159 0 
L 581 0 
L 581 4863 
L 1159 4863 
L 1159 2956 
Q 1366 3272 1645 3428 
Q 1925 3584 2291 3584 
Q 2894 3584 3203 3211 
Q 3513 2838 3513 2113 
z
" transform="scale(0.015625)"/>
       <path id="DejaVuSans-62" d="M 3116 1747 
Q 3116 2381 2855 2742 
Q 2594 3103 2138 3103 
Q 1681 3103 1420 2742 
Q 1159 2381 1159 1747 
Q 1159 1113 1420 752 
Q 1681 391 2138 391 
Q 2594 391 2855 752 
Q 3116 1113 3116 1747 
z
M 1159 2969 
Q 1341 3281 1617 3432 
Q 1894 3584 2278 3584 
Q 2916 3584 3314 3078 
Q 3713 2572 3713 1747 
Q 3713 922 3314 415 
Q 2916 -91 2278 -91 
Q 1894 -91 1617 61 
Q 1341 213 1159 525 
L 1159 0 
L 581 0 
L 581 4863 
L 1159 4863 
L 1159 2969 
z
" transform="scale(0.015625)"/>
       <path id="DejaVuSans-64" d="M 2906 2969 
L 2906 4863 
L 3481 4863 
L 3481 0 
L 2906 0 
L 2906 525 
Q 2725 213 2448 61 
Q 2172 -91 1784 -91 
Q 1150 -91 751 415 
Q 353 922 353 1747 
Q 353 2572 751 3078 
Q 1150 3584 1784 3584 
Q 2172 3584 2448 3432 
Q 2725 3281 2906 2969 
z
M 947 1747 
Q 947 1113 1208 752 
Q 1469 391 1925 391 
Q 2381 391 2643 752 
Q 2906 1113 2906 1747 
Q 2906 2381 2643 2742 
Q 2381 3103 1925 3103 
Q 1469 3103 1208 2742 
Q 947 2381 947 1747 
z
" transform="scale(0.015625)"/>
       <path id="DejaVuSans-70" d="M 1159 525 
L 1159 -1331 
L 581 -1331 
L 581 3500 
L 1159 3500 
L 1159 2969 
Q 1341 3281 1617 3432 
Q 1894 3584 2278 3584 
Q 2916 3584 3314 3078 
Q 3713 2572 3713 1747 
Q 3713 922 3314 415 
Q 2916 -91 2278 -91 
Q 1894 -91 1617 61 
Q 1341 213 1159 525 
z
M 3116 1747 
Q 3116 2381 2855 2742 
Q 2594 3103 2138 3103 
Q 1681 3103 1420 2742 
Q 1159 2381 1159 1747 
Q 1159 1113 1420 752 
Q 1681 391 2138 391 
Q 2594 391 2855 752 
Q 3116 1113 3116 1747 
z
" transform="scale(0.015625)"/>
      </defs>
      <use xlink:href="#DejaVuSans-54"/>
      <use xlink:href="#DejaVuSans-6f" x="44.083984"/>
      <use xlink:href="#DejaVuSans-6b" x="105.265625"/>
      <use xlink:href="#DejaVuSans-65" x="159.550781"/>
      <use xlink:href="#DejaVuSans-6e" x="221.074219"/>
      <use xlink:href="#DejaVuSans-73" x="284.453125"/>
      <use xlink:href="#DejaVuSans-20" x="336.552734"/>
      <use xlink:href="#DejaVuSans-77" x="368.339844"/>
      <use xlink:href="#DejaVuSans-69" x="450.126953"/>
      <use xlink:href="#DejaVuSans-74" x="477.910156"/>
      <use xlink:href="#DejaVuSans-68" x="517.119141"/>
      <use xlink:href="#DejaVuSans-20" x="580.498047"/>
      <use xlink:href="#DejaVuSans-62" x="612.285156"/>
      <use xlink:href="#DejaVuSans-6f" x="675.761719"/>
      <use xlink:href="#DejaVuSans-6e" x="736.943359"/>
      <use xlink:href="#DejaVuSans-64" x="800.322266"/>
      <use xlink:href="#DejaVuSans-20" x="863.798828"/>
      <use xlink:href="#DejaVuSans-70" x="895.585938"/>
      <use xlink:href="#DejaVuSans-72" x="959.0625"/>
      <use xlink:href="#DejaVuSans-6f" x="997.925781"/>
      <use xlink:href="#DejaVuSans-64" x="1059.107422"/>
      <use xlink:href="#DejaVuSans-75" x="1122.583984"/>
      <use xlink:href="#DejaVuSans-63" x="1185.962891"/>
      <use xlink:href="#DejaVuSans-74" x="1240.943359"/>
     </g>
    </g>
   </g>
  </g>
 </g>
 <defs>
  <clipPath id="p76bbc9a9fa">
   <rect x="54" y="34.56" width="334.8" height="217.44"/>
  </clipPath>
 </defs>
</svg>
